<?xml version="1.0" standalone="no"?>
<!DOCTYPE svg PUBLIC "-//W3C//DTD SVG 20010904//EN"
 "http://www.w3.org/TR/2001/REC-SVG-20010904/DTD/svg10.dtd">
<svg version="1.0" xmlns="http://www.w3.org/2000/svg"
 width="2048.000000pt" height="2048.000000pt" viewBox="0 0 2048.000000 2048.000000"
 preserveAspectRatio="xMidYMid meet">
<metadata>
Created by potrace 1.11, written by Peter Selinger 2001-2013
</metadata>
<g transform="translate(0.000000,2048.000000) scale(0.100000,-0.100000)"
fill="#000000" stroke="none">
<path d="M4671 16384 c-154 -42 -275 -158 -338 -324 -16 -42 -17 -422 -18
-5845 -1 -4408 2 -5812 10 -5850 38 -163 161 -296 323 -352 l67 -22 1980 -1
c1896 0 1983 1 2041 19 179 54 312 205 341 386 4 22 7 813 7 1758 l0 1717
1311 1 c720 0 1362 2 1425 4 145 3 399 15 465 21 28 2 86 6 130 9 146 10 323
26 435 40 19 3 58 7 85 10 28 3 77 10 110 15 33 5 83 12 110 15 28 4 61 9 75
11 14 3 50 9 80 14 30 6 66 12 80 15 14 3 41 8 60 11 34 6 171 32 200 39 8 2
47 10 86 19 223 48 672 184 809 245 11 5 56 24 100 41 121 49 316 144 444 218
261 149 457 299 671 512 273 271 452 506 629 825 127 228 213 434 311 740 48
154 106 425 135 635 14 98 17 126 29 240 25 228 25 676 0 925 -8 81 -14 141
-20 180 -3 22 -7 49 -9 60 -40 296 -161 719 -277 973 -237 520 -501 889 -928
1296 -175 167 -476 406 -630 499 -25 15 -74 46 -110 68 -139 88 -530 296 -570
304 -3 1 -23 9 -45 19 -343 152 -857 310 -1240 381 -63 12 -312 54 -345 59
-62 9 -194 25 -245 31 -27 3 -68 8 -90 10 -43 5 -98 10 -240 21 -49 3 -110 9
-135 12 -25 3 -1667 6 -3650 8 -3146 3 -3612 1 -3659 -12z m6834 -3295 c409
-53 697 -368 760 -833 15 -110 8 -307 -14 -408 -6 -24 -12 -54 -15 -68 -18
-96 -107 -264 -183 -345 -112 -121 -283 -221 -436 -254 -23 -6 -55 -13 -72
-18 -16 -4 -573 -9 -1237 -10 l-1208 -4 0 976 0 975 1168 -1 c642 0 1199 -5
1237 -10z"/>
</g>
</svg>
